# xmcd
#
# Track frame offsets: 
#        150
#        15427
#        28794
#        36722
#        55037
#        67206
#        81944
#        85353
#        104866
#        116472
#        133471
#        145328
#        163577
#        178963
#        192406
#        208223
#        221182
#        237919
#        245535
#        266828
#
# Disc length: 3725 seconds
#
# Revision: 0
# Processed by: cddbd v1.5.1PL0 Copyright (c) Steve Scherf et al.
# Submitted via: ExactAudioCopy v0.95a3
#
DISCID=470e8b14
DTITLE=Big Joe Williams - I Got Wild
DYEAR=2003
DGENRE=Blues
TTITLE0=Coffeehouse Blues
TTITLE1=Angel Child
TTITLE2=Studio Talk
TTITLE3=P-Vine Blues
TTITLE4=Bull Cow Blues
TTITLE5=So Much Wine
TTITLE6=Studio Talk
TTITLE7=Studio Blues
TTITLE8=She Are My Sunshine
TTITLE9=Arkansas Woman
TTITLE10=Studio Talk
TTITLE11=That Thing's In Town
TTITLE12=Desert Blues
TTITLE13=I Got Wild
TTITLE14=Prison Bound
TTITLE15=Midnight Creep
TTITLE16=GM&O Blues
TTITLE17=Interview
TTITLE18=I'm Tired
TTITLE19=Back Door
EXTD=
EXTT0=
EXTT1=
EXTT2=
EXTT3=
EXTT4=
EXTT5=
EXTT6=
EXTT7=
EXTT8=
EXTT9=
EXTT10=
EXTT11=
EXTT12=
EXTT13=
EXTT14=
EXTT15=
EXTT16=
EXTT17=
EXTT18=
EXTT19=
PLAYORDER=
